# xmcd
# Track frame offsets:
# 150
# 8862
# 17255
# 26627
# 42327
# 57426
# 68217
# 96315
# 114833
# 129332
# 144652
# 162580
# 182373
# 191904
# 209985
# 222182
# 232393
# 255530
#
# Disc length: 3557 seconds
# Revision: 0
# Processed by: cddbd v1.5.2PL0 Copyright (c) Steve Scherf et al.
# Submitted via: VisiTrax 2.11.1.266 - For more info visit www.synapsa.com
#
DISCID=0b0de312
DTITLE=Johnny Cash - At San Quentin (recorded 1969)
DYEAR=2000
DGENRE=
TTITLE0=Big river
TTITLE1=I stil miss someone
TTITLE2=Wreck of the old 97
TTITLE3=I walk the line
TTITLE4=Darlin´ companion (with June Carter)
TTITLE5=I don´t knowwhere I´m bound
TTITLE6=Starkville city jail
TTITLE7=San Quentin
TTITLE8=San Quentin
TTITLE9=Wanted man
TTITLE10=A boy named Sue
TTITLE11=(There´ll be) Peace in the valley
TTITLE12=Folsom Prison blues
TTITLE13=Ring of fire
TTITLE14=He turned the water into wine
TTITLE15=Daddy sang bass
TTITLE16=The old acount was settled long ago
TTITLE17=Closing medley - Folsom prison blues/I walk the line/Ring of fire/Th
TTITLE17=e Rebel Johnny Yuma
EXTD=
EXTT0=
EXTT1=
EXTT2=
EXTT3=
EXTT4=
EXTT5=
EXTT6=
EXTT7=
EXTT8=
EXTT9=
EXTT10=
EXTT11=
EXTT12=
EXTT13=
EXTT14=
EXTT15=
EXTT16=
EXTT17=
PLAYORDER=
